<?xml version="1.0" encoding="iso-8859-1"?>
<!-- Generator: Adobe Illustrator 18.0.0, SVG Export Plug-In . SVG Version: 6.00 Build 0)  -->
<!DOCTYPE svg PUBLIC "-//W3C//DTD SVG 1.1//EN" "http://www.w3.org/Graphics/SVG/1.1/DTD/svg11.dtd">
<svg version="1.1" id="Capa_1" xmlns="http://www.w3.org/2000/svg" xmlns:xlink="http://www.w3.org/1999/xlink" x="0px" y="0px"
	 viewBox="0 0 308.16 308.16" style="enable-background:new 0 0 308.16 308.16;" xml:space="preserve">
<g>
	<path d="M217.017,123.172c-0.641-0.172-1.187-0.591-1.518-1.165l-3-5.196c-0.69-1.196-0.281-2.725,0.915-3.415l11.868-6.854
		c-4.289-6.119-9.56-11.39-15.679-15.679l-6.852,11.868c-0.331,0.574-0.877,0.993-1.518,1.165c-0.64,0.17-1.323,0.081-1.897-0.25
		l-5.196-3c-1.196-0.69-1.605-2.22-0.915-3.415l6.865-11.891c-6.74-3.161-13.944-5.088-21.431-5.731v13.719
		c0,1.381-1.119,2.5-2.5,2.5h-6c-1.381,0-2.5-1.119-2.5-2.5V79.609c-7.486,0.644-14.69,2.57-21.431,5.731l6.866,11.891
		c0.331,0.574,0.421,1.256,0.25,1.896c-0.172,0.641-0.591,1.187-1.166,1.519l-5.196,3c-1.196,0.689-2.725,0.28-3.415-0.915
		l-6.853-11.868c-6.12,4.289-11.39,9.56-15.68,15.679l11.869,6.854c1.196,0.69,1.606,2.219,0.916,3.415l-3,5.196
		c-0.332,0.574-0.877,0.993-1.518,1.165c-0.64,0.17-1.323,0.081-1.897-0.25l-11.891-6.866c-3.162,6.74-5.088,13.944-5.732,21.431
		h13.72c1.381,0,2.5,1.119,2.5,2.5v6c0,1.381-1.119,2.5-2.5,2.5h-13.72c0.644,7.486,2.57,14.69,5.732,21.431l11.891-6.864
		c1.196-0.692,2.726-0.281,3.416,0.915l3,5.196c0.332,0.574,0.421,1.257,0.25,1.896c-0.172,0.641-0.59,1.187-1.165,1.519
		l-11.869,6.852c4.29,6.12,9.56,11.391,15.679,15.68l6.853-11.869c0.689-1.195,2.219-1.607,3.415-0.915l5.196,3
		c0.575,0.331,0.993,0.877,1.166,1.518c0.171,0.641,0.081,1.323-0.25,1.897l-6.866,11.891c6.74,3.162,13.944,5.089,21.431,5.732
		v-13.721c0-1.381,1.119-2.5,2.5-2.5h6c1.381,0,2.5,1.119,2.5,2.5v13.721c7.486-0.644,14.69-2.57,21.431-5.732l-6.865-11.891
		c-0.69-1.196-0.281-2.725,0.915-3.415l5.196-3c0.574-0.332,1.257-0.422,1.897-0.25c0.641,0.172,1.187,0.591,1.518,1.165
		l6.852,11.869c6.119-4.29,11.39-9.561,15.679-15.68l-11.868-6.852c-0.575-0.332-0.993-0.878-1.165-1.519
		c-0.171-0.64-0.082-1.322,0.25-1.896l3-5.196c0.689-1.195,2.218-1.607,3.415-0.915l11.89,6.864
		c3.162-6.74,5.088-13.944,5.732-21.431h-13.719c-1.381,0-2.5-1.119-2.5-2.5v-6c0-1.381,1.119-2.5,2.5-2.5h13.719
		c-0.644-7.486-2.57-14.691-5.732-21.431l-11.89,6.866C218.339,123.253,217.656,123.342,217.017,123.172z M173.158,167.89
		c-13.731,0-24.902-11.171-24.902-24.903c0-13.732,11.171-24.903,24.902-24.903c13.732,0,24.904,11.172,24.904,24.903
		C198.063,156.719,186.891,167.89,173.158,167.89z"/>
	<path d="M283.428,0H41.33v62.986h-14.5V0h-2.098C14.845,0,6.83,8.016,6.83,17.902v250.167c0,9.888,8.015,17.902,17.902,17.902
		h2.098v-62.985h14.5l0.104,80.174c0,2.761,2.239,5,5,5H76.1c2.761,0,5-2.239,5-5v-17.188h150.461v17.188c0,2.761,2.239,5,5,5
		h29.666c2.761,0,5-2.239,5-5v-17.188h12.201c9.888,0,17.902-8.015,17.902-17.902V17.902C301.33,8.016,293.315,0,283.428,0z
		 M41.33,202.986h-14.5v-120h14.5V202.986z M173.158,217.486c-41.08,0-74.5-33.42-74.5-74.5c0-41.079,33.42-74.5,74.5-74.5
		c41.079,0,74.5,33.421,74.5,74.5C247.658,184.066,214.237,217.486,173.158,217.486z"/>
	<path d="M173.158,129.083c-7.666,0-13.902,6.237-13.902,13.903c0,7.667,6.236,13.903,13.902,13.903
		c7.667,0,13.904-6.236,13.904-13.903C187.063,135.32,180.825,129.083,173.158,129.083z"/>
</g>
<g>
</g>
<g>
</g>
<g>
</g>
<g>
</g>
<g>
</g>
<g>
</g>
<g>
</g>
<g>
</g>
<g>
</g>
<g>
</g>
<g>
</g>
<g>
</g>
<g>
</g>
<g>
</g>
<g>
</g>
</svg>
